<?xml version="1.0" encoding="UTF-8" standalone="no"?>
<svg
   height="24px"
   viewBox="0 -960 960 960"
   width="24px"
   fill="#000000"
   version="1.1"
   id="svg1"
   sodipodi:docname="cassaforte.svg"
   inkscape:version="1.4.2 (f4327f4, 2025-05-13)"
   xmlns:inkscape="http://www.inkscape.org/namespaces/inkscape"
   xmlns:sodipodi="http://sodipodi.sourceforge.net/DTD/sodipodi-0.dtd"
   xmlns="http://www.w3.org/2000/svg"
   xmlns:svg="http://www.w3.org/2000/svg">
  <defs
     id="defs1" />
  <sodipodi:namedview
     id="namedview1"
     pagecolor="#505050"
     bordercolor="#ffffff"
     borderopacity="1"
     inkscape:showpageshadow="0"
     inkscape:pageopacity="0"
     inkscape:pagecheckerboard="1"
     inkscape:deskcolor="#505050"
     inkscape:zoom="33.625"
     inkscape:cx="11.98513"
     inkscape:cy="12"
     inkscape:window-width="1920"
     inkscape:window-height="1009"
     inkscape:window-x="-8"
     inkscape:window-y="-8"
     inkscape:window-maximized="1"
     inkscape:current-layer="svg1" />
  <path
     d="m 240,-80 c -22,0 -40.83333,-7.833333 -56.5,-23.5 C 167.83333,-119.16667 160,-138 160,-160 v -400 c 0,-22 7.83333,-40.83333 23.5,-56.5 15.66667,-15.66667 34.5,-23.5 56.5,-23.5 h 40 v -80 c 0,-55.33333 19.5,-102.5 58.5,-141.5 39,-39 86.16667,-58.5 141.5,-58.5 55.33333,0 102.5,19.5 141.5,58.5 39,39 58.5,86.16667 58.5,141.5 v 80 h 40 c 22,0 40.83333,7.83333 56.5,23.5 15.66667,15.66667 23.5,34.5 23.5,56.5 v 400 c 0,22 -7.83333,40.83333 -23.5,56.5 C 760.83333,-87.833333 742,-80 720,-80 Z m 0,-80 H 720 V -560 H 240 Z m 120,-480 h 240 v -80 c 0,-33.33333 -11.66667,-61.66667 -35,-85 -23.33333,-23.33333 -51.66667,-35 -85,-35 -33.33333,0 -61.66667,11.66667 -85,35 -23.33333,23.33333 -35,51.66667 -35,85 z m -120,480 v -400 z"
     id="path1"
     sodipodi:nodetypes="sssssscssssscssssssscccccccssssscccc" />
</svg>
