<?xml version="1.0" encoding="UTF-8" standalone="no"?>
<svg
   height="24px"
   viewBox="0 -960 960 960"
   width="24px"
   fill="#000000"
   version="1.1"
   id="svg1"
   sodipodi:docname="linea cortesia.svg"
   inkscape:version="1.4.2 (f4327f4, 2025-05-13)"
   xml:space="preserve"
   xmlns:inkscape="http://www.inkscape.org/namespaces/inkscape"
   xmlns:sodipodi="http://sodipodi.sourceforge.net/DTD/sodipodi-0.dtd"
   xmlns="http://www.w3.org/2000/svg"
   xmlns:svg="http://www.w3.org/2000/svg"><defs
     id="defs1" /><sodipodi:namedview
     id="namedview1"
     pagecolor="#505050"
     bordercolor="#ffffff"
     borderopacity="1"
     inkscape:showpageshadow="0"
     inkscape:pageopacity="0"
     inkscape:pagecheckerboard="1"
     inkscape:deskcolor="#505050"
     inkscape:zoom="33.625"
     inkscape:cx="11.97026"
     inkscape:cy="12"
     inkscape:window-width="1920"
     inkscape:window-height="1009"
     inkscape:window-x="-8"
     inkscape:window-y="-8"
     inkscape:window-maximized="1"
     inkscape:current-layer="svg1" /><path
     d="m 348.25279,-109.29368 c -33.33333,0 -61.66667,-11.66667 -85,-35 -23.33333,-23.33333 -35,-51.66667 -35,-85 v -480 c 0,-33.33333 11.66667,-61.66667 35,-85 23.33333,-23.33333 51.66667,-35 85,-35 h 320 c 33.33333,0 61.66667,11.66667 85,35 23.33333,23.33333 35,51.66667 35,85 v 252 c -2.95024,154.73179 -47.2386,-28.68402 -2.37918,-0.13383 7.24513,144.88775 28.73882,327.32883 -157.62082,348.13383 z m 0,-80 h 280 c 70.49931,0 107.29546,-85.70454 56.5,-136.5 -15.66667,-15.66667 -34.50685,-22.95124 -56.5,-23.5 l -190.70632,-4.75836 c -362.88041,-9.05433 -56.63897,-17.82189 -144.01487,-21.63569 -80.99497,-3.53528 -59.32962,-24.30607 -39.99628,-43.63941 19.33333,-19.33333 166.71747,-9.96654 194.71747,-9.96654 h 180 c 14,0 27.83333,2 41.5,6 13.66667,4 26.5,10 38.5,18 v -304 c 0,-11.33333 -3.83333,-20.83333 -11.5,-28.5 -7.66667,-7.66667 -17.16667,-11.5 -28.5,-11.5 h -320 c -11.33333,0 -20.83333,3.83333 -28.5,11.5 -7.66667,7.66667 -11.5,17.16667 -11.5,28.5 v 480 c 0,11.33333 3.83333,20.83333 11.5,28.5 7.66667,7.66667 17.16667,11.5 28.5,11.5 z m 0,0 h 280 -320 z"
     id="path1-8"
     sodipodi:nodetypes="sssssssssccsssssssssssscssssssssscccc"
     style="fill:#000000;display:inline"
     transform="matrix(1.1650272,0,0,1.1668732,-106.30727,49.16756)" /></svg>
